<?xml version="1.0" encoding="UTF-8" standalone="no"?>
<!DOCTYPE svg PUBLIC "-//W3C//DTD SVG 1.1//EN" "http://www.w3.org/Graphics/SVG/1.1/DTD/svg11.dtd">
<svg width="100%" height="100%" viewBox="0 0 5906 5906" version="1.1" xmlns="http://www.w3.org/2000/svg" xmlns:xlink="http://www.w3.org/1999/xlink" xml:space="preserve" xmlns:serif="http://www.serif.com/" style="fill-rule:evenodd;clip-rule:evenodd;stroke-linejoin:round;stroke-miterlimit:2;">
    <g transform="matrix(5.28099,0,0,5.16464,-2889.9,-3898.34)">
        <circle cx="1106.36" cy="1326.54" r="546.672" style="fill:rgb(77,211,218);"/>
        <clipPath id="_clip1">
            <circle cx="1106.36" cy="1326.54" r="546.672"/>
        </clipPath>
        <g clip-path="url(#_clip1)">
            <g transform="matrix(3.99127,0,0,4.08119,-2738.67,-3558.23)">
                <path d="M972.616,1154.95L972.616,1144.42L993.642,1144.42L993.642,1249.37L972.616,1249.37L972.616,1238.88C963.846,1245.47 952.946,1249.38 941.141,1249.38C912.185,1249.38 888.676,1225.87 888.676,1196.92C888.676,1167.96 912.185,1144.45 941.141,1144.45C952.946,1144.45 963.846,1148.36 972.616,1154.95ZM972.616,1196.43L972.616,1197.4C972.357,1214.55 958.353,1228.39 941.141,1228.39C923.767,1228.39 909.662,1214.29 909.662,1196.92C909.662,1179.54 923.767,1165.44 941.141,1165.44C958.353,1165.44 972.357,1179.28 972.616,1196.43Z"/>
                <g transform="matrix(1.09779,0,0,1.02996,-62.7273,-38.9207)">
                    <rect x="983.559" y="1148.91" width="19.154" height="101.901"/>
                </g>
            </g>
        </g>
    </g>
    <g id="Layer1">
    </g>
</svg>
